<?xml version="1.0" encoding="iso-8859-1"?>
<!-- Generator: Adobe Illustrator 19.0.0, SVG Export Plug-In . SVG Version: 6.00 Build 0)  -->
<svg version="1.1" id="Layer_1" xmlns="http://www.w3.org/2000/svg" xmlns:xlink="http://www.w3.org/1999/xlink" x="0px" y="0px"
	 viewBox="0 0 512 512" fill="white" style="enable-background:new 0 0 512 512;" xml:space="preserve">
<g>
	<g>
		<g>
			<polygon points="328.375,343.931 343.992,343.931 343.992,184.067 88.294,184.067 87.98,511.985 103.596,512 103.895,199.684 
				328.375,199.684 			"/>
			<path d="M212.138,167.672c32.99,0,59.827-26.839,59.827-59.827V59.827C271.965,26.839,245.126,0,212.138,0
				s-59.827,26.839-59.827,59.827v48.018C152.31,140.833,179.148,167.672,212.138,167.672z M167.926,59.827
				c0-24.379,19.833-44.211,44.211-44.211c24.378,0,44.211,19.833,44.211,44.211v48.018c0,24.379-19.833,44.211-44.211,44.211
				c-24.377,0-44.211-19.833-44.211-44.211V59.827z"/>
			<path d="M264.351,352.129v159.669H424.02V352.129H264.351z M408.404,496.181H279.968V367.745h128.436V496.181z"/>
			<rect x="208.325" y="215.884" width="15.617" height="16.006"/>
			<rect x="208.325" y="247.898" width="15.617" height="16.006"/>
			<rect x="208.325" y="279.912" width="15.617" height="16.006"/>
			<polygon points="336.378,463.975 351.995,463.975 351.995,439.772 376.197,439.772 376.197,424.156 351.995,424.156 
				351.995,399.952 336.378,399.952 336.378,424.156 312.174,424.156 312.174,439.772 336.378,439.772 			"/>
			<polygon points="151.921,280.102 128.107,280.102 128.107,295.719 136.305,295.719 136.305,511.798 256.154,511.798 
				256.154,496.181 151.921,496.181 			"/>
			<polygon points="295.974,343.931 295.974,295.719 304.171,295.719 304.171,280.102 280.357,280.102 280.357,343.931 			"/>
		</g>
	</g>
</g>
<g>
</g>
<g>
</g>
<g>
</g>
<g>
</g>
<g>
</g>
<g>
</g>
<g>
</g>
<g>
</g>
<g>
</g>
<g>
</g>
<g>
</g>
<g>
</g>
<g>
</g>
<g>
</g>
<g>
</g>
</svg>
