<?xml version="1.0" encoding="iso-8859-1"?>
<!-- Generator: Adobe Illustrator 19.0.0, SVG Export Plug-In . SVG Version: 6.00 Build 0)  -->
<svg version="1.1" id="Layer_1" xmlns="http://www.w3.org/2000/svg" xmlns:xlink="http://www.w3.org/1999/xlink" x="0px" y="0px"
	 viewBox="0 0 512.001 512.001" fill="white" style="enable-background:new 0 0 512.001 512.001;" xml:space="preserve">
<g>
	<g>
		<path d="M503.524,87.486h-92.897c-4.682,0-8.476,3.795-8.476,8.476c0,4.681,3.794,8.476,8.476,8.476h41.672
			c3.604,21.854,20.895,39.144,42.749,42.749v98.963c-21.854,3.604-39.145,20.895-42.749,42.749H142.724
			c-3.604-21.854-20.895-39.144-42.749-42.749v-98.963c21.854-3.604,39.144-20.895,42.749-42.749H381.49
			c4.682,0,8.476-3.795,8.476-8.476c0-4.681-3.794-8.476-8.476-8.476H91.498c-4.681,0-8.476,3.795-8.476,8.476v201.412
			c0,4.681,3.795,8.476,8.476,8.476h233.978v24.863H16.952V237.69c0-9.116,7.417-16.533,16.533-16.533h29.757
			c4.681,0,8.476-3.795,8.476-8.476c0-4.681-3.795-8.476-8.476-8.476H33.484C15.022,204.207,0,219.227,0,237.691V391.03
			c0,18.463,15.022,33.484,33.484,33.484h275.46c18.464,0,33.484-15.021,33.484-33.484v-85.179h161.096
			c4.682,0,8.476-3.795,8.476-8.476V95.962C512,91.281,508.206,87.486,503.524,87.486z M99.974,104.438h25.456
			c-3.12,12.488-12.968,22.336-25.456,25.456V104.438z M99.974,288.898v-25.456c12.488,3.12,22.336,12.968,25.456,25.456H99.974z
			 M325.476,363.487H83.754c-4.681,0-8.476,3.795-8.476,8.476s3.795,8.476,8.476,8.476h241.723v10.59
			c0,9.117-7.416,16.533-16.531,16.533H33.484c-9.116,0-16.533-7.417-16.533-16.533v-10.59H52.11c4.681,0,8.476-3.795,8.476-8.476
			s-3.795-8.476-8.476-8.476H16.952v-15.822h308.524V363.487z M495.048,288.898h-25.456c3.12-12.488,12.968-22.336,25.456-25.456
			V288.898z M495.048,129.894c-12.488-3.12-22.336-12.968-25.456-25.456h25.456V129.894z"/>
	</g>
</g>
<g>
	<g>
		<path d="M297.511,119.181c-34.834,0-63.174,34.762-63.174,77.488c0,42.727,28.34,77.488,63.174,77.488
			s63.174-34.762,63.174-77.488C360.685,153.942,332.345,119.181,297.511,119.181z M297.512,257.205
			c-25.487,0-46.222-27.157-46.222-60.536s20.736-60.536,46.222-60.536c25.487,0,46.222,27.157,46.222,60.536
			C343.734,230.048,322.999,257.205,297.512,257.205z"/>
	</g>
</g>
<g>
	<g>
		<path d="M470.807,177.458h-83.836c-4.682,0-8.476,3.795-8.476,8.476s3.794,8.476,8.476,8.476h83.836
			c4.682,0,8.476-3.795,8.476-8.476S475.489,177.458,470.807,177.458z"/>
	</g>
</g>
<g>
	<g>
		<path d="M203.963,177.458h-83.837c-4.681,0-8.476,3.795-8.476,8.476s3.795,8.476,8.476,8.476h83.837
			c4.681,0,8.476-3.795,8.476-8.476C212.439,181.253,208.644,177.458,203.963,177.458z"/>
	</g>
</g>
<g>
	<g>
		<path d="M470.807,206.341h-46.007c-4.682,0-8.476,3.795-8.476,8.476s3.794,8.476,8.476,8.476h46.007
			c4.682,0,8.476-3.795,8.476-8.476S475.489,206.341,470.807,206.341z"/>
	</g>
</g>
<g>
	<g>
		<path d="M166.133,206.341h-46.007c-4.681,0-8.476,3.795-8.476,8.476s3.795,8.476,8.476,8.476h46.007
			c4.681,0,8.476-3.795,8.476-8.476S170.814,206.341,166.133,206.341z"/>
	</g>
</g>
<g>
	<g>
		<path d="M322.053,188.193h-40.609v-12.812h40.609c4.682,0,8.476-3.795,8.476-8.476s-3.794-8.476-8.476-8.476h-16.066v-8.532
			c0-4.681-3.794-8.476-8.476-8.476s-8.476,3.795-8.476,8.476v8.532h-16.067c-4.682,0-8.476,3.795-8.476,8.476v29.764
			c0,4.681,3.794,8.476,8.476,8.476h40.609v12.812h-40.609c-4.682,0-8.476,3.795-8.476,8.476s3.794,8.476,8.476,8.476h16.067v8.532
			c0,4.681,3.794,8.476,8.476,8.476s8.476-3.795,8.476-8.476v-8.532h16.066c4.682,0,8.476-3.795,8.476-8.476v-29.764
			C330.529,191.988,326.735,188.193,322.053,188.193z"/>
	</g>
</g>
<g>
</g>
<g>
</g>
<g>
</g>
<g>
</g>
<g>
</g>
<g>
</g>
<g>
</g>
<g>
</g>
<g>
</g>
<g>
</g>
<g>
</g>
<g>
</g>
<g>
</g>
<g>
</g>
<g>
</g>
</svg>
