<?xml version="1.0" encoding="iso-8859-1"?>
<!-- Generator: Adobe Illustrator 19.0.0, SVG Export Plug-In . SVG Version: 6.00 Build 0)  -->
<svg version="1.1" id="Layer_1" xmlns="http://www.w3.org/2000/svg" xmlns:xlink="http://www.w3.org/1999/xlink" x="0px" y="0px"
	 viewBox="0 0 520.69 520.69" fill="white" style="enable-background:new 0 0 520.69 520.69;" xml:space="preserve">
<g>
	<g>
		<g>
			<path d="M259.893,162.145c-1.18-3.549-4.495-5.936-8.235-5.936c-3.74,0-7.055,2.386-8.235,5.936
				c-6.517,19.569-25.73,20.09-26.477,20.098c-4.79,0-8.678,3.888-8.678,8.678v34.712c0,28.984,19.812,69.424,52.068,69.424
				c32.265,0,52.068-40.439,52.068-69.424v-34.712c0-4.79-3.879-8.678-8.678-8.678C303.352,182.243,266.41,181.697,259.893,162.145z
				 M295.047,225.633c0,23.587-15.482,52.068-34.712,52.068c-19.23,0-34.712-28.481-34.712-52.068v-27.093
				c8.504-1.927,18.987-6.769,26.693-16.627c12.158,12.158,31.544,15.959,42.73,17.148V225.633z"/>
			<path d="M42.605,182.209c0.26,0.026,0.529,0.035,0.79,0.035c4.443,0,8.227-3.384,8.635-7.897l8.678-95.432
				c1.935-20.654,29.696-44.197,52.103-44.197h17.356c22.84,0,50.593,23.448,52.094,44.058l1.336,17.356
				c0.373,4.782,4.53,8.383,9.32,7.984c4.782-0.364,8.357-4.539,7.984-9.32l-1.328-17.321
				c-2.326-31.805-40.743-60.112-69.406-60.112H112.81c-31.588,0-66.603,30.251-69.389,59.965l-8.678,95.458
				C34.309,177.557,37.824,181.775,42.605,182.209z"/>
			<path d="M327.772,104.116c4.66,0.338,8.947-3.211,9.311-7.984l1.319-17.217c1.935-20.654,29.687-44.197,52.102-44.197h17.356
				c22.84,0,50.593,23.448,52.103,44.171l8.678,95.458c0.417,4.513,4.191,7.897,8.635,7.897c0.26,0,0.529-0.009,0.798-0.035
				c4.773-0.434,8.287-4.651,7.854-9.424l-8.669-95.31c-2.317-31.805-40.734-60.112-69.398-60.112h-17.356
				c-31.588,0-66.603,30.251-69.398,60.078l-1.328,17.356C319.415,99.577,322.99,103.751,327.772,104.116z"/>
			<path d="M173.582,277.033c-0.373,4.782,3.211,8.956,7.984,9.32c4.66,0.373,8.956-3.211,9.32-7.984l8.669-112.675
				c1.935-20.654,29.687-44.197,52.103-44.197h17.356c22.84,0,50.593,23.448,52.094,44.058l8.678,112.814
				c0.347,4.547,4.148,8.01,8.643,8.01c0.217,0,0.451-0.009,0.677-0.026c4.773-0.364,8.348-4.539,7.984-9.32l-8.678-112.779
				c-2.317-31.805-40.734-60.112-69.398-60.112h-17.356c-31.588,0-66.603,30.251-69.398,60.078L173.582,277.033z"/>
			<path d="M398.731,75.366c-1.18-3.549-4.486-5.936-8.227-5.936c-3.74,0-7.055,2.386-8.227,5.936
				c-6.526,19.569-25.73,20.089-26.485,20.098c-4.799,0-8.678,3.888-8.678,8.678v34.712c0,28.984,19.803,69.424,52.068,69.424
				s52.068-40.439,52.068-69.424v-34.712c0-4.79-3.879-8.678-8.678-8.678C442.199,95.464,405.257,94.917,398.731,75.366z
				 M433.895,138.854c0,23.587-15.482,52.068-34.712,52.068s-34.712-28.481-34.712-52.068v-27.093
				c8.496-1.927,18.996-6.769,26.693-16.627c12.158,12.158,31.544,15.959,42.73,17.148V138.854z"/>
			<path d="M182.234,381.837c-4.79,0-8.678,3.888-8.678,8.678V494.65c0,4.79,3.888,8.678,8.678,8.678s8.678-3.888,8.678-8.678
				V390.515C190.912,385.724,187.024,381.837,182.234,381.837z"/>
			<path d="M303.985,295.161c-4.825,0.026-8.912,3.792-8.938,8.652c-0.009,1.77-0.607,43.312-34.712,43.312
				c-34.096,0-34.703-41.533-34.712-43.277c0-4.79-3.879-8.669-8.661-8.678c-31.458,0.347-57.136,8.912-74.188,25.93
				c-13.729,13.703-21.287,32.187-21.287,52.059v104.136c0,4.79,3.888,8.678,8.678,8.678c4.79,0,8.678-3.888,8.678-8.678V373.159
				c0-15.23,5.753-29.358,16.184-39.771c12.314-12.297,30.807-19.369,53.821-20.645c2.482,19.76,13.52,46.557,42.808,51.026v44.101
				c0,4.79,3.888,8.678,8.678,8.678c4.79,0,8.678-3.888,8.678-8.678v-44.101c29.288-4.469,40.327-31.267,42.808-51.035
				c23.014,1.284,41.507,8.357,53.821,20.654c10.44,10.422,16.184,24.541,16.184,39.771v104.136c0,4.79,3.879,8.678,8.678,8.678
				c4.799,0,8.678-3.888,8.678-8.678V373.159c0-19.872-7.558-38.357-21.278-52.05C360.896,304.125,335.348,295.161,303.985,295.161z
				"/>
			<path d="M477.284,295.057c-4.799,0-8.678,3.888-8.678,8.678V407.87c0,4.79,3.879,8.678,8.678,8.678
				c4.799,0,8.678-3.888,8.678-8.678V303.735C485.962,298.945,482.083,295.057,477.284,295.057z"/>
			<path d="M518.331,235.943c-11.845-12.583-34.556-27.561-75.516-27.561c-4.834,0.104-8.895,3.801-8.921,8.652
				c-0.009,1.77-0.607,43.312-34.712,43.312c-10.179,0-17.955-3.35-23.76-10.24c-3.098-3.662-8.574-4.131-12.236-1.041
				c-3.653,3.098-4.122,8.565-1.041,12.227c7.263,8.617,16.974,13.902,28.36,15.69v26.754c0,4.79,3.879,8.678,8.678,8.678
				s8.678-3.888,8.678-8.678v-26.745c29.288-4.469,40.318-31.267,42.808-51.035c23.821,1.328,42.73,8.826,55.018,21.886
				c3.298,3.489,8.791,3.636,12.271,0.365C521.455,244.924,521.612,239.431,518.331,235.943z"/>
			<path d="M43.386,295.057c-4.79,0-8.678,3.888-8.678,8.678V407.87c0,4.79,3.888,8.678,8.678,8.678c4.79,0,8.678-3.888,8.678-8.678
				V303.735C52.064,298.945,48.176,295.057,43.386,295.057z"/>
			<path d="M121.045,75.366c-1.189-3.549-4.495-5.936-8.235-5.936c-3.74,0-7.047,2.386-8.235,5.936
				c-6.517,19.569-25.73,20.089-26.476,20.098c-4.79,0-8.678,3.888-8.678,8.678v34.712c0,28.984,19.812,69.424,52.068,69.424
				c32.256,0,52.068-40.439,52.068-69.424v-34.712c0-4.79-3.888-8.678-8.678-8.678C164.505,95.464,127.562,94.917,121.045,75.366z
				 M156.2,138.854c0,23.587-15.482,52.068-34.712,52.068c-19.23,0-34.712-28.481-34.712-52.068v-27.093
				c8.504-1.927,18.987-6.769,26.693-16.627c12.158,12.158,31.536,15.959,42.73,17.148V138.854z"/>
			<path d="M130.166,303.735v-26.728c11.221-1.71,20.619-6.769,27.96-15.23c3.133-3.627,2.742-9.103-0.876-12.245
				c-3.627-3.141-9.112-2.742-12.245,0.876c-5.797,6.691-13.486,9.936-23.517,9.936c-34.096,0-34.703-41.533-34.712-43.277
				c-0.009-4.894-4.426-8.669-8.964-8.678c-40.917,0-63.609,14.969-75.455,27.552c-3.28,3.489-3.115,8.982,0.365,12.262
				c3.489,3.272,8.982,3.124,12.271-0.365c12.297-13.06,31.206-20.558,55.01-21.886c2.482,19.768,13.52,46.566,42.808,51.035v26.745
				c0,4.79,3.888,8.678,8.678,8.678C126.278,312.413,130.166,308.525,130.166,303.735z"/>
			<path d="M338.437,381.837c-4.799,0-8.678,3.888-8.678,8.678V494.65c0,4.79,3.879,8.678,8.678,8.678
				c4.799,0,8.678-3.888,8.678-8.678V390.515C347.115,385.724,343.236,381.837,338.437,381.837z"/>
		</g>
	</g>
</g>
<g>
</g>
<g>
</g>
<g>
</g>
<g>
</g>
<g>
</g>
<g>
</g>
<g>
</g>
<g>
</g>
<g>
</g>
<g>
</g>
<g>
</g>
<g>
</g>
<g>
</g>
<g>
</g>
<g>
</g>
</svg>
